<svg xmlns="http://www.w3.org/2000/svg" width="32" height="32" viewBox="0 0 32 32" fill="none">
  <rect width="32" height="32" rx="8" fill="#1C1917"/>
  <path d="M16,3 C19.5,7 24,12.5 24,18 C24,23.5 20.5,28 16,28 C11.5,28 8,23.5 8,18 C8,12.5 12.5,7 16,3Z" fill="#F97316"/>
  <path d="M16,11.5 C17.5,14 20,16.5 20,20 C20,23.5 18.2,26 16,26 C13.8,26 12,23.5 12,20 C12,16.5 14.5,14 16,11.5Z" fill="#FBBF24"/>
  <path d="M16,18 C16.8,19.2 17.5,20.3 17.5,21.8 C17.5,23.5 16.9,24.5 16,24.5 C15.1,24.5 14.5,23.5 14.5,21.8 C14.5,20.3 15.2,19.2 16,18Z" fill="#FEF08A"/>
</svg>
